<svg width="110" height="110" viewBox="0 0 110 110" fill="none" xmlns="http://www.w3.org/2000/svg">
<rect width="110" height="110" rx="55" fill="#FF6600"/>
<circle cx="55.0002" cy="55" r="25" fill="white"/>
<path d="M63.3333 45C62.8913 45 62.4674 45.1756 62.1548 45.4881C61.8422 45.8007 61.6666 46.2246 61.6666 46.6667V59.3166L47.85 45.4833C47.5361 45.1695 47.1105 44.9932 46.6667 44.9932C46.2228 44.9932 45.7972 45.1695 45.4833 45.4833C45.1695 45.7972 44.9932 46.2228 44.9932 46.6667C44.9932 47.1105 45.1695 47.5361 45.4833 47.85L59.3166 61.6666H46.6667C46.2246 61.6666 45.8007 61.8422 45.4881 62.1548C45.1756 62.4674 45 62.8913 45 63.3333C45 63.7753 45.1756 64.1993 45.4881 64.5118C45.8007 64.8244 46.2246 65 46.6667 65H63.3333C63.5511 64.9973 63.7663 64.952 63.9666 64.8666C64.3739 64.6975 64.6975 64.3739 64.8666 63.9666C64.952 63.7663 64.9973 63.5511 65 63.3333V46.6667C65 46.2246 64.8244 45.8007 64.5118 45.4881C64.1993 45.1756 63.7753 45 63.3333 45Z" fill="#009051"/>
<path d="M48.1221 90.3496L45.5072 100.447L43.6664 99.9602L45.8601 91.4897L41.5422 90.349L41.9634 88.7227L48.1221 90.3496Z" fill="white"/>
<path d="M39.6966 87.5079L34.5532 96.5816L28.5538 93.1128L29.3823 91.6512L33.7334 94.167L35.052 91.8407L30.9433 89.4651L31.7718 88.0036L35.8805 90.3792L37.2198 88.0164L32.8687 85.5007L33.6972 84.0391L39.6966 87.5079Z" fill="white"/>
<path d="M32.3226 82.7853L22.3657 87.4594L20.6642 85.6771L25.6521 75.7981L27.0829 77.2968L25.9905 79.3963L28.7747 82.3127L30.9015 81.2967L32.3226 82.7853ZM27.194 83.0898L25.1639 80.9633L23.0295 85.0934L27.194 83.0898Z" fill="white"/>
<path d="M25.1199 74.2215L15.8577 79.0168L14.1025 75.5588C13.1393 73.6612 13.5056 71.7847 15.383 70.8128C16.6635 70.1498 17.913 70.3227 18.8617 71.14L21.4955 67.0806L22.4713 69.0032L20.0281 72.6958L20.8392 74.2937L24.2582 72.5237L25.1199 74.2215ZM19.3473 75.0661L18.4412 73.2809C17.9786 72.3696 17.115 72.06 16.2447 72.5106C15.3744 72.9612 15.1191 73.8501 15.5817 74.7614L16.4878 76.5466L19.3473 75.0661Z" fill="white"/>
<path d="M21.0304 64.7559L10.7545 66.5422L10.5052 65.0792L16.2634 59.0338L9.67026 60.1799L9.3504 58.3029L19.6263 56.5167L19.878 57.9934L13.9933 64.0466L20.7105 62.879L21.0304 64.7559Z" fill="white"/>
<path d="M20.419 48.3195L10.5239 45.0225L11.089 43.2925L16.6299 41.4791L13.2191 36.7716L13.7842 35.0415L23.6794 38.3386L23.0838 40.1617L16.3631 37.9224L19.4276 42.3375L19.358 42.5504L14.1567 44.2261L21.0103 46.5097L20.419 48.3195Z" fill="white"/>
<path d="M28.2372 32.7569C26.3342 35.1787 23.0699 35.5943 20.6666 33.6681C18.2632 31.7418 17.9249 28.4565 19.8365 26.0237C21.7482 23.5909 25.0016 23.1665 27.4049 25.0928C29.8082 27.019 30.1488 30.3241 28.2372 32.7569ZM26.8826 31.6712C28.1368 30.075 27.8694 27.923 26.2198 26.6009C24.5812 25.2875 22.4454 25.5132 21.1911 27.1094C19.9369 28.7056 20.2043 30.8576 21.8429 32.171C23.4925 33.4931 25.6283 33.2674 26.8826 31.6712Z" fill="white"/>
<path d="M33.3336 27.341L27.6821 18.5748L30.9223 16.4441C32.7003 15.2749 34.5892 15.4403 35.7346 17.217C36.516 18.429 36.4691 19.6997 35.7561 20.7382L40.0245 22.9411L38.2231 24.1257L34.3356 22.0745L32.8383 23.0591L34.9244 26.2949L33.3336 27.341ZM31.928 21.6471L33.6008 20.5471C34.4547 19.9855 34.6748 19.0868 34.1438 18.2632C33.6128 17.4395 32.7099 17.2792 31.856 17.8407L30.1833 18.9407L31.928 21.6471Z" fill="white"/>
<path d="M42.3539 22.2001L39.3641 12.2078L45.9923 10.1849L46.4739 11.7944L41.6668 13.2615L42.4333 15.8233L46.9726 14.4379L47.4542 16.0474L42.9149 17.4328L43.6934 20.0348L48.5005 18.5677L48.9821 20.1772L42.3539 22.2001Z" fill="white"/>
<path d="M62.7344 20.7552L65.6272 10.7343L67.4536 11.2721L65.0268 19.6789L69.311 20.9403L68.845 22.5544L62.7344 20.7552Z" fill="white"/>
<path d="M71.0761 23.8341L76.469 14.9065L82.3689 18.5418L81.5002 19.9798L77.2213 17.3433L75.8387 19.6321L79.8793 22.1218L79.0106 23.5598L74.97 21.0701L73.5657 23.3949L77.8446 26.0314L76.976 27.4694L71.0761 23.8341Z" fill="white"/>
<path d="M78.3162 28.762L88.3996 24.3672L90.0508 26.1961L84.7896 35.9322L83.4011 34.3942L84.5516 32.3261L81.8497 29.3333L79.6953 30.2896L78.3162 28.762ZM83.4514 28.6005L85.4215 30.7827L87.6702 26.7137L83.4514 28.6005Z" fill="white"/>
<path d="M85.2797 37.5234L94.6727 32.9895L96.3315 36.4949C97.2417 38.4184 96.8234 40.2836 94.9196 41.2026C93.621 41.8294 92.3766 41.6217 91.4509 40.7783L88.7051 44.7619L87.7828 42.8131L90.3278 39.1907L89.5613 37.5709L86.0941 39.2445L85.2797 37.5234ZM91.0743 36.8406L91.9306 38.6502C92.3678 39.574 93.2226 39.9075 94.1052 39.4815C94.9877 39.0555 95.2676 38.1742 94.8305 37.2505L93.9742 35.4408L91.0743 36.8406Z" fill="white"/>
<path d="M89.1087 47.0987L99.4308 45.6021L99.6396 47.0713L93.7163 52.9521L100.339 51.9918L100.607 53.8769L90.285 55.3735L90.0741 53.8904L96.1241 48.0054L89.3767 48.9837L89.1087 47.0987Z" fill="white"/>
<path d="M89.2716 63.5472L99.0703 67.1207L98.4576 68.8345L92.8694 70.4921L96.148 75.294L95.5353 77.0078L85.7366 73.4342L86.3823 71.6282L93.0375 74.0553L90.0969 69.5555L90.1723 69.3446L95.4173 67.8151L88.6306 65.34L89.2716 63.5472Z" fill="white"/>
<path d="M81.0267 78.8872C82.9963 76.5193 86.2708 76.1947 88.6194 78.1873C90.968 80.1799 91.2147 83.4735 89.2362 85.8522C87.2577 88.231 83.9939 88.5646 81.6453 86.572C79.2967 84.5794 79.0482 81.2659 81.0267 78.8872ZM82.3505 80.0103C81.0524 81.571 81.2598 83.7298 82.8718 85.0974C84.4731 86.456 86.6143 86.2898 87.9125 84.7291C89.2106 83.1685 89.0032 81.0097 87.4018 79.6511C85.7898 78.2835 83.6486 78.4496 82.3505 80.0103Z" fill="white"/>
<path d="M75.7832 84.1571L81.1893 93.0766L77.8908 95.1159C76.0808 96.2349 74.1971 96.0169 73.1013 94.2091C72.3539 92.9759 72.4361 91.7071 73.1778 90.689L68.9718 88.3681L70.8056 87.2344L74.635 89.3931L76.1593 88.4507L74.1637 85.1583L75.7832 84.1571ZM77.03 89.8875L75.3272 90.9402C74.4579 91.4776 74.2129 92.3698 74.7208 93.2078C75.2288 94.0459 76.1269 94.2313 76.9962 93.6939L78.6991 92.6411L77.03 89.8875Z" fill="white"/>
<path d="M66.6225 89.0407L69.3352 99.1117L62.6528 100.948L62.2159 99.3255L67.0623 97.994L66.3669 95.412L61.7904 96.6693L61.3535 95.0472L65.9299 93.7898L65.2235 91.1673L60.3771 92.4988L59.9402 90.8766L66.6225 89.0407Z" fill="white"/>
</svg>
