<svg width="121" height="40" viewBox="0 0 121 40" fill="none" xmlns="http://www.w3.org/2000/svg">
<path fill-rule="evenodd" clip-rule="evenodd" d="M10.9871 3.12269C14.6804 4.92348 16.4354 7.80923 17.1638 10.7838C18.8953 9.83931 20.5637 9.29846 21.7706 8.99664C22.052 7.91331 22.6081 6.92526 23.3601 6.13366C24.4926 4.94105 26.0666 4.18456 27.8316 4.18456H42.2877C44.5625 4.18456 46.4066 6.04715 46.4066 8.34488V9.15372C47.4126 8.96151 48.4927 8.86525 49.6468 8.86525H50.23C51.0524 8.86525 51.8185 9.10884 52.4619 9.52839C53.9 8.91956 55.5681 8.6171 57.4664 8.6171C58.7248 8.6171 59.8886 8.72183 60.958 8.93225C61.4465 8.32407 61.9798 7.74874 62.5549 7.21407C64.0208 5.85103 65.7703 4.75502 67.7491 4.03756L77.9262 0.346868C78.0972 0.272066 78.2749 0.207349 78.4595 0.155312C80.6457 -0.463922 82.9149 0.823979 83.528 3.03163L85.1874 8.92769C85.9686 8.76475 86.7953 8.66946 87.667 8.64182C87.8138 8.62588 87.9629 8.61742 88.1139 8.61742C89.544 8.61742 90.8491 8.7963 92.0294 9.15307V8.34488C92.0294 6.04715 93.8736 4.18456 96.1483 4.18456H98.2662C99.9446 4.18456 101.471 4.89941 102.575 6.03218C103.331 6.80753 103.891 7.78484 104.163 8.86525H105.717V8.86785C107.116 8.8672 108.428 9.59311 109.182 10.7802C109.42 10.5177 109.684 10.2774 109.973 10.0598C111.024 9.26788 112.267 8.86525 113.697 8.86525H116.552V8.87728C116.984 8.87728 117.423 8.94656 117.855 9.09258C120.005 9.81947 121.165 12.1696 120.446 14.3414L114.103 33.3127C114.073 33.4232 114.039 33.5335 113.999 33.6431C113.228 35.761 112.355 37.2587 110.746 38.4178C109.187 39.5411 107.378 40 104.797 40C104.252 40 103.773 39.9876 103.318 39.9567C102.887 39.9275 102.488 39.8637 102.118 39.7623C100.306 39.3255 98.9586 37.6798 98.9586 35.7161V33.5836H96.148C95.2035 33.5836 94.3337 33.2626 93.6388 32.7227C92.0529 33.5345 90.2003 33.9556 88.0521 33.9556V33.941L87.9394 33.9394C85.8186 33.8724 83.9605 33.4177 82.3662 32.577L82.1372 32.4524C82.0535 32.5249 81.9691 32.5965 81.8838 32.6674C80.559 33.7657 79.0404 34.6539 77.3627 35.2621L67.1856 38.9528C67.0146 39.0279 66.8368 39.0923 66.6523 39.1446C64.4661 39.7639 62.1969 38.476 61.5837 36.2683L60.7565 33.3292C59.7991 33.5995 58.776 33.7748 57.6947 33.8623L57.5421 33.8776C57.1215 33.9111 56.7364 33.9277 56.3876 33.9277C53.8488 33.9277 51.6082 33.2219 49.8713 31.8602C49.6185 31.6621 49.3786 31.4527 49.1515 31.2325C48.4853 32.6238 47.0742 33.5839 45.4412 33.5839H41.2978C40.3163 33.5839 39.4153 33.2372 38.7078 32.6583C38 33.2372 37.099 33.5839 36.1178 33.5839H31.8517C29.5766 33.5839 27.7324 31.7213 27.7324 29.4239V20.6727C24.9747 27.9054 16.977 32.5201 15.7472 33.1956C15.5749 33.2974 15.3943 33.3868 15.2059 33.4632C14.4833 33.8047 13.6547 33.9381 12.8078 33.7989C-3.30924 31.1076 0.354698 16.8216 0.36468 16.7806L0.366607 16.781C0.680897 15.4843 1.59543 14.4364 2.78497 13.9385C2.12644 8.44733 6.14202 4.08537 6.16006 4.06553L6.16135 4.06683C7.35378 2.7425 9.30941 2.30507 10.9868 3.12302L10.9871 3.12269Z" fill="#3C3C3C"/>
<path fill-rule="evenodd" clip-rule="evenodd" d="M12.6535 20.5017C12.6535 20.5017 16.349 10.2889 9.31834 6.86035C9.31834 6.86035 2.61745 14.1272 12.6535 20.5017Z" fill="#A8CF45"/>
<path fill-rule="evenodd" clip-rule="evenodd" d="M24.1982 12.7698C24.1982 12.7698 10.8154 14.1504 13.7874 29.6101C13.7874 29.6101 27.3064 22.5465 24.1982 12.7698Z" fill="#009051"/>
<path fill-rule="evenodd" clip-rule="evenodd" d="M4.47294 17.7717C4.47294 17.7717 1.9087 27.7536 13.5854 29.7034C13.5854 29.7034 12.1818 18.1223 4.47294 17.7717Z" fill="#FF6600"/>
<path fill-rule="evenodd" clip-rule="evenodd" d="M79.6872 4.15316L69.2503 7.93784C63.6365 9.97345 60.3809 16.3908 62.0155 22.1984L65.6597 35.1468L76.0967 31.3617C81.7105 29.3261 84.9658 22.9087 83.3315 17.1011L79.6872 4.15283V4.15316Z" fill="#009051"/>
<path d="M25.7993 10.6077V12.0957H31.9686V29.4235H36.2347V12.0957H42.4039V8.34481H27.9478C26.7509 8.34481 25.7993 9.39888 25.7993 10.6077ZM41.4147 29.4235H45.5581V20.8989C45.5581 18.5121 46.6935 17.3032 48.9651 17.3032H50.3462V13.0255H49.763C44.3306 13.0255 41.5377 15.6605 41.4147 20.9611V29.4235ZM56.8152 26.3855C55.5262 26.3855 54.8509 25.7657 54.7588 24.4638C54.7588 23.2549 55.5877 22.4799 57.2142 22.1699C58.4112 21.9221 59.516 21.5809 60.4676 21.178V22.6968C60.4676 25.0215 59.0864 26.3855 56.8152 26.3855ZM57.7668 16.1561C59.4548 16.1561 60.3143 16.6212 60.4064 17.551C60.4064 18.45 59.5163 18.9768 57.7668 19.1941C53.654 19.597 50.8302 20.6511 50.7384 24.5877C50.7384 28.2143 53.4392 30.0434 57.3372 29.7334C61.7263 29.4235 64.4271 27.4087 64.4271 22.8828V17.3032C64.335 14.2653 62.0638 12.7777 57.5829 12.7777C53.8385 12.7777 51.7206 14.2656 51.2295 17.3032H55.3114C55.5262 16.5282 56.3242 16.1565 57.7668 16.1565V16.1561ZM72.7378 16.4661C74.9475 16.4661 76.0832 18.0158 76.1753 21.1777C76.1753 24.4943 75.009 26.1683 72.6763 26.1683C70.3436 26.1683 69.2387 24.4943 69.2693 21.1777C69.392 18.0158 70.5278 16.4661 72.7375 16.4661H72.7378ZM78.2008 8.34448H76.175V15.319C75.1314 13.6142 73.566 12.7773 71.5405 12.7773C67.2129 12.9322 65.0644 15.7841 65.0644 21.3637C65.0644 26.8194 67.581 29.578 72.6145 29.6713C77.6785 29.7022 80.226 27.2536 80.226 22.3247V10.4214C80.226 9.30553 79.3054 8.34448 78.2002 8.34448H78.2008ZM95.2589 24.4016H92.2509C91.6986 24.4016 91.2381 24.5877 90.8697 24.9906C90.0718 25.7656 89.1817 26.1686 88.2301 26.1686C86.2352 26.1686 85.161 24.8979 85.0074 22.3869H95.5042C95.8111 15.9701 93.3866 12.7777 88.2301 12.7777C83.2888 12.8086 80.8028 15.5984 80.8028 21.1783C80.8028 26.7579 83.2582 29.6408 88.169 29.7956C92.1591 29.7956 94.3688 27.8738 95.2589 24.402V24.4016ZM88.169 16.1561C89.9185 16.1561 90.9312 17.272 91.1769 19.4419H85.0692C85.3761 17.272 86.4197 16.1561 88.169 16.1561ZM98.3824 8.34448H96.2645V29.4232H100.346V10.3593C100.346 9.27431 99.4564 8.34448 98.3821 8.34448H98.3824ZM103.194 32.3372V35.716C103.317 35.809 103.869 35.8399 104.913 35.8399C108.289 35.8399 109.271 34.9101 110.253 32.213L116.668 13.0252H113.813C112.77 13.0252 112.125 13.5211 111.88 14.4822L109.056 24.4016L105.833 13.0252H101.199L106.723 29.0511C107.368 31.221 106.569 32.3369 104.329 32.3369H103.193L103.194 32.3372Z" fill="white"/>
<mask id="mask0_3918_395" style="mask-type:luminance" maskUnits="userSpaceOnUse" x="25" y="8" width="92" height="28">
<path d="M25.7993 10.6077V12.0957H31.9686V29.4235H36.2347V12.0957H42.4039V8.34481H27.9478C26.7509 8.34481 25.7993 9.39888 25.7993 10.6077ZM41.4147 29.4235H45.5581V20.8989C45.5581 18.5121 46.6935 17.3032 48.9651 17.3032H50.3462V13.0255H49.763C44.3306 13.0255 41.5377 15.6605 41.4147 20.9611V29.4235ZM56.8152 26.3855C55.5262 26.3855 54.8509 25.7657 54.7588 24.4638C54.7588 23.2549 55.5877 22.4799 57.2142 22.1699C58.4112 21.9221 59.516 21.5809 60.4676 21.178V22.6968C60.4676 25.0215 59.0864 26.3855 56.8152 26.3855ZM57.7668 16.1561C59.4548 16.1561 60.3143 16.6212 60.4064 17.551C60.4064 18.45 59.5163 18.9768 57.7668 19.1941C53.654 19.597 50.8302 20.6511 50.7384 24.5877C50.7384 28.2143 53.4392 30.0434 57.3372 29.7334C61.7263 29.4235 64.4271 27.4087 64.4271 22.8828V17.3032C64.335 14.2653 62.0638 12.7777 57.5829 12.7777C53.8385 12.7777 51.7206 14.2656 51.2295 17.3032H55.3114C55.5262 16.5282 56.3242 16.1565 57.7668 16.1565V16.1561ZM72.7378 16.4661C74.9475 16.4661 76.0832 18.0158 76.1753 21.1777C76.1753 24.4943 75.009 26.1683 72.6763 26.1683C70.3436 26.1683 69.2387 24.4943 69.2693 21.1777C69.392 18.0158 70.5278 16.4661 72.7375 16.4661H72.7378ZM78.2008 8.34448H76.175V15.319C75.1314 13.6142 73.566 12.7773 71.5405 12.7773C67.2129 12.9322 65.0644 15.7841 65.0644 21.3637C65.0644 26.8194 67.581 29.578 72.6145 29.6713C77.6785 29.7022 80.226 27.2536 80.226 22.3247V10.4214C80.226 9.30553 79.3054 8.34448 78.2002 8.34448H78.2008ZM95.2589 24.4016H92.2509C91.6986 24.4016 91.2381 24.5877 90.8697 24.9906C90.0718 25.7656 89.1817 26.1686 88.2301 26.1686C86.2352 26.1686 85.161 24.8979 85.0074 22.3869H95.5042C95.8111 15.9701 93.3866 12.7777 88.2301 12.7777C83.2888 12.8086 80.8028 15.5984 80.8028 21.1783C80.8028 26.7579 83.2582 29.6408 88.169 29.7956C92.1591 29.7956 94.3688 27.8738 95.2589 24.402V24.4016ZM88.169 16.1561C89.9185 16.1561 90.9312 17.272 91.1769 19.4419H85.0692C85.3761 17.272 86.4197 16.1561 88.169 16.1561ZM98.3824 8.34448H96.2645V29.4232H100.346V10.3593C100.346 9.27431 99.4564 8.34448 98.3821 8.34448H98.3824ZM103.194 32.3372V35.716C103.317 35.809 103.869 35.8399 104.913 35.8399C108.289 35.8399 109.271 34.9101 110.253 32.213L116.668 13.0252H113.813C112.77 13.0252 112.125 13.5211 111.88 14.4822L109.056 24.4016L105.833 13.0252H101.199L106.723 29.0511C107.368 31.221 106.569 32.3369 104.329 32.3369H103.193L103.194 32.3372Z" fill="white"/>
</mask>
<g mask="url(#mask0_3918_395)">
<path fill-rule="evenodd" clip-rule="evenodd" d="M-8.02563 68.2645C11.5828 32.4429 72.6282 -0.0158405 130.612 32.1388C173.02 55.6561 -7.37838 86.5101 -8.02563 68.2645Z" fill="#E6E6E6"/>
</g>
</svg>
